<?xml version="1.0" encoding="UTF-8" standalone="no"?>
<!DOCTYPE svg PUBLIC "-//W3C//DTD SVG 1.1//EN"
 "http://www.w3.org/Graphics/SVG/1.1/DTD/svg11.dtd">
<!-- Generated by graphviz version 2.40.1 (20161225.0304)
 -->
<!-- Title: dependencies Pages: 1 -->
<svg width="3040pt" height="366pt"
 viewBox="0.00 0.00 3040.00 366.00" xmlns="http://www.w3.org/2000/svg" xmlns:xlink="http://www.w3.org/1999/xlink">
<g id="graph0" class="graph" transform="scale(1 1) rotate(0) translate(4 362)">
<title>dependencies</title>
<polygon fill="#ffffff" stroke="transparent" points="-4,4 -4,-362 3036,-362 3036,4 -4,4"/>
<text text-anchor="start" x="1495.0091" y="-42.4" font-family="sans-serif" font-weight="bold" font-size="14.00" fill="#000000">Legend</text>
<polygon fill="#ffffb3" stroke="transparent" points="1282,-10 1282,-30 1302,-30 1302,-10 1282,-10"/>
<text text-anchor="start" x="1305.629" y="-15.4" font-family="sans-serif" font-size="14.00" fill="#000000"> &#160;Declarations</text>
<polygon fill="#8dd3c7" stroke="transparent" points="1395,-10 1395,-30 1415,-30 1415,-10 1395,-10"/>
<text text-anchor="start" x="1418.7251" y="-15.4" font-family="sans-serif" font-size="14.00" fill="#000000"> &#160;Module</text>
<polygon fill="#80b1d3" stroke="transparent" points="1481,-10 1481,-30 1501,-30 1501,-10 1481,-10"/>
<text text-anchor="start" x="1504.7812" y="-15.4" font-family="sans-serif" font-size="14.00" fill="#000000"> &#160;Bootstrap</text>
<polygon fill="#fdb462" stroke="transparent" points="1578,-10 1578,-30 1598,-30 1598,-10 1578,-10"/>
<text text-anchor="start" x="1601.6732" y="-15.4" font-family="sans-serif" font-size="14.00" fill="#000000"> &#160;Providers</text>
<polygon fill="#fb8072" stroke="transparent" points="1674,-10 1674,-30 1694,-30 1694,-10 1674,-10"/>
<text text-anchor="start" x="1697.7258" y="-15.4" font-family="sans-serif" font-size="14.00" fill="#000000"> &#160;Exports</text>
<g id="clust1" class="cluster">
<title>cluster_AppModule</title>
<polygon fill="none" stroke="#000000" stroke-dasharray="1,5" points="638,-146 638,-350 1293,-350 1293,-146 638,-146"/>
</g>
<g id="clust2" class="cluster">
<title>cluster_AppModule_declarations</title>
<polygon fill="none" stroke="#000000" points="1163,-154 1163,-206 1285,-206 1285,-154 1163,-154"/>
</g>
<g id="clust4" class="cluster">
<title>cluster_AppModule_imports</title>
<polygon fill="none" stroke="#000000" points="646,-154 646,-206 1155,-206 1155,-154 646,-154"/>
</g>
<g id="clust6" class="cluster">
<title>cluster_AppModule_bootstrap</title>
<polygon fill="none" stroke="#000000" points="892,-290 892,-342 1016,-342 1016,-290 892,-290"/>
</g>
<g id="clust14" class="cluster">
<title>cluster_LoginModule</title>
<polygon fill="none" stroke="#000000" stroke-dasharray="1,5" points="1264,-70 1264,-138 1572,-138 1572,-70 1264,-70"/>
</g>
<g id="clust15" class="cluster">
<title>cluster_LoginModule_declarations</title>
<polygon fill="none" stroke="#000000" points="1434,-78 1434,-130 1564,-130 1564,-78 1434,-78"/>
</g>
<g id="clust17" class="cluster">
<title>cluster_LoginModule_imports</title>
<polygon fill="none" stroke="#000000" points="1272,-78 1272,-130 1426,-130 1426,-78 1272,-78"/>
</g>
<g id="clust27" class="cluster">
<title>cluster_PageNotFoundModule</title>
<polygon fill="none" stroke="#000000" stroke-dasharray="1,5" points="8,-70 8,-138 600,-138 600,-70 8,-70"/>
</g>
<g id="clust28" class="cluster">
<title>cluster_PageNotFoundModule_declarations</title>
<polygon fill="none" stroke="#000000" points="410,-78 410,-130 592,-130 592,-78 410,-78"/>
</g>
<g id="clust30" class="cluster">
<title>cluster_PageNotFoundModule_imports</title>
<polygon fill="none" stroke="#000000" points="208,-78 208,-130 402,-130 402,-78 208,-78"/>
</g>
<g id="clust31" class="cluster">
<title>cluster_PageNotFoundModule_exports</title>
<polygon fill="none" stroke="#000000" points="16,-78 16,-130 200,-130 200,-78 16,-78"/>
</g>
<g id="clust40" class="cluster">
<title>cluster_PrestationsModule</title>
<polygon fill="none" stroke="#000000" stroke-dasharray="1,5" points="1580,-70 1580,-282 2238,-282 2238,-70 1580,-70"/>
</g>
<g id="clust41" class="cluster">
<title>cluster_PrestationsModule_declarations</title>
<polygon fill="none" stroke="#000000" points="1588,-78 1588,-130 1924,-130 1924,-78 1588,-78"/>
</g>
<g id="clust44" class="cluster">
<title>cluster_PrestationsModule_imports</title>
<polygon fill="none" stroke="#000000" points="1932,-78 1932,-130 2230,-130 2230,-78 1932,-78"/>
</g>
<g id="clust45" class="cluster">
<title>cluster_PrestationsModule_exports</title>
<polygon fill="none" stroke="#000000" points="1836,-222 1836,-274 2020,-274 2020,-222 1836,-222"/>
</g>
<g id="clust54" class="cluster">
<title>cluster_SharedModule</title>
<polygon fill="none" stroke="#000000" stroke-dasharray="1,5" points="2246,-146 2246,-214 3024,-214 3024,-146 2246,-146"/>
</g>
<g id="clust55" class="cluster">
<title>cluster_SharedModule_declarations</title>
<polygon fill="none" stroke="#000000" points="2644,-154 2644,-206 3016,-206 3016,-154 2644,-154"/>
</g>
<g id="clust60" class="cluster">
<title>cluster_SharedModule_exports</title>
<polygon fill="none" stroke="#000000" points="2254,-154 2254,-206 2636,-206 2636,-154 2254,-154"/>
</g>
<g id="clust63" class="cluster">
<title>cluster_UiModule</title>
<polygon fill="none" stroke="#000000" stroke-dasharray="1,5" points="608,-70 608,-138 1256,-138 1256,-70 608,-70"/>
</g>
<g id="clust64" class="cluster">
<title>cluster_UiModule_declarations</title>
<polygon fill="none" stroke="#000000" points="738,-78 738,-130 1248,-130 1248,-78 738,-78"/>
</g>
<g id="clust70" class="cluster">
<title>cluster_UiModule_exports</title>
<polygon fill="none" stroke="#000000" points="616,-78 616,-130 730,-130 730,-78 616,-78"/>
</g>
<!-- AppComponent -->
<g id="node1" class="node">
<title>AppComponent</title>
<polygon fill="#ffffb3" stroke="#000000" points="1276.9399,-198 1171.0601,-198 1171.0601,-162 1276.9399,-162 1276.9399,-198"/>
<text text-anchor="middle" x="1224" y="-175.8" font-family="Times,serif" font-size="14.00" fill="#000000">AppComponent</text>
</g>
<!-- AppModule -->
<g id="node2" class="node">
<title>AppModule</title>
<polygon fill="#8dd3c7" stroke="#000000" points="995.6571,-266 992.6571,-270 971.6571,-270 968.6571,-266 912.3429,-266 912.3429,-230 995.6571,-230 995.6571,-266"/>
<text text-anchor="middle" x="954" y="-243.8" font-family="Times,serif" font-size="14.00" fill="#000000">AppModule</text>
</g>
<!-- AppComponent&#45;&gt;AppModule -->
<g id="edge1" class="edge">
<title>AppComponent&#45;&gt;AppModule</title>
<path fill="none" stroke="#000000" d="M1224,-198.2921C1224,-220.2057 1224,-254 1224,-254 1224,-254 1005.8913,-254 1005.8913,-254"/>
<polygon fill="#000000" stroke="#000000" points="1005.8913,-250.5001 995.8913,-254 1005.8912,-257.5001 1005.8913,-250.5001"/>
</g>
<!-- AppComponent  -->
<g id="node7" class="node">
<title>AppComponent </title>
<polygon fill="#80b1d3" stroke="#000000" points="1008.439,-334 899.561,-334 899.561,-298 1008.439,-298 1008.439,-334"/>
<text text-anchor="middle" x="954" y="-311.8" font-family="Times,serif" font-size="14.00" fill="#000000">AppComponent </text>
</g>
<!-- AppModule&#45;&gt;AppComponent  -->
<g id="edge6" class="edge">
<title>AppModule&#45;&gt;AppComponent </title>
<path fill="none" stroke="#000000" stroke-dasharray="1,5" d="M954,-266.2228C954,-266.2228 954,-287.7269 954,-287.7269"/>
<polygon fill="#000000" stroke="#000000" points="950.5001,-287.7269 954,-297.7269 957.5001,-287.727 950.5001,-287.7269"/>
</g>
<!-- AppRoutingModule -->
<g id="node3" class="node">
<title>AppRoutingModule</title>
<polygon fill="#8dd3c7" stroke="#000000" points="1147.2744,-198 1144.2744,-202 1123.2744,-202 1120.2744,-198 1018.7256,-198 1018.7256,-162 1147.2744,-162 1147.2744,-198"/>
<text text-anchor="middle" x="1083" y="-175.8" font-family="Times,serif" font-size="14.00" fill="#000000">AppRoutingModule</text>
</g>
<!-- AppRoutingModule&#45;&gt;AppModule -->
<g id="edge2" class="edge">
<title>AppRoutingModule&#45;&gt;AppModule</title>
<path fill="none" stroke="#000000" d="M1083,-198.2667C1083,-216.5552 1083,-242 1083,-242 1083,-242 1005.8826,-242 1005.8826,-242"/>
<polygon fill="#000000" stroke="#000000" points="1005.8826,-238.5001 995.8826,-242 1005.8826,-245.5001 1005.8826,-238.5001"/>
</g>
<!-- LoginModule -->
<g id="node4" class="node">
<title>LoginModule</title>
<polygon fill="#8dd3c7" stroke="#000000" points="1000.493,-198 997.493,-202 976.493,-202 973.493,-198 907.507,-198 907.507,-162 1000.493,-162 1000.493,-198"/>
<text text-anchor="middle" x="954" y="-175.8" font-family="Times,serif" font-size="14.00" fill="#000000">LoginModule</text>
</g>
<!-- LoginModule&#45;&gt;AppModule -->
<g id="edge3" class="edge">
<title>LoginModule&#45;&gt;AppModule</title>
<path fill="none" stroke="#000000" d="M954,-198.2228C954,-198.2228 954,-219.7269 954,-219.7269"/>
<polygon fill="#000000" stroke="#000000" points="950.5001,-219.7269 954,-229.7269 957.5001,-219.727 950.5001,-219.7269"/>
</g>
<!-- PageNotFoundModule -->
<g id="node5" class="node">
<title>PageNotFoundModule</title>
<polygon fill="#8dd3c7" stroke="#000000" points="797.5421,-198 794.5421,-202 773.5421,-202 770.5421,-198 654.4579,-198 654.4579,-162 797.5421,-162 797.5421,-198"/>
<text text-anchor="middle" x="726" y="-175.8" font-family="Times,serif" font-size="14.00" fill="#000000">PageNotFoundModule</text>
</g>
<!-- PageNotFoundModule&#45;&gt;AppModule -->
<g id="edge4" class="edge">
<title>PageNotFoundModule&#45;&gt;AppModule</title>
<path fill="none" stroke="#000000" d="M726,-198.2921C726,-220.2057 726,-254 726,-254 726,-254 902.1813,-254 902.1813,-254"/>
<polygon fill="#000000" stroke="#000000" points="902.1813,-257.5001 912.1813,-254 902.1813,-250.5001 902.1813,-257.5001"/>
</g>
<!-- PageNotFoundComponent  -->
<g id="node12" class="node">
<title>PageNotFoundComponent </title>
<polygon fill="#fb8072" stroke="#000000" points="192.3241,-122 23.6759,-122 23.6759,-86 192.3241,-86 192.3241,-122"/>
<text text-anchor="middle" x="108" y="-99.8" font-family="Times,serif" font-size="14.00" fill="#000000">PageNotFoundComponent </text>
</g>
<!-- PageNotFoundModule&#45;&gt;PageNotFoundComponent  -->
<g id="edge11" class="edge">
<title>PageNotFoundModule&#45;&gt;PageNotFoundComponent </title>
<path fill="none" stroke="#000000" stroke-dasharray="5,2" d="M654.2012,-189C491.3516,-189 108,-189 108,-189 108,-189 108,-132.0263 108,-132.0263"/>
<polygon fill="#000000" stroke="#000000" points="111.5001,-132.0263 108,-122.0263 104.5001,-132.0263 111.5001,-132.0263"/>
</g>
<!-- UiModule -->
<g id="node6" class="node">
<title>UiModule</title>
<polygon fill="#8dd3c7" stroke="#000000" points="889.5484,-198 886.5484,-202 865.5484,-202 862.5484,-198 816.4516,-198 816.4516,-162 889.5484,-162 889.5484,-198"/>
<text text-anchor="middle" x="853" y="-175.8" font-family="Times,serif" font-size="14.00" fill="#000000">UiModule</text>
</g>
<!-- UiModule&#45;&gt;AppModule -->
<g id="edge5" class="edge">
<title>UiModule&#45;&gt;AppModule</title>
<path fill="none" stroke="#000000" d="M853,-198.2667C853,-216.5552 853,-242 853,-242 853,-242 902.3363,-242 902.3363,-242"/>
<polygon fill="#000000" stroke="#000000" points="902.3364,-245.5001 912.3363,-242 902.3363,-238.5001 902.3364,-245.5001"/>
</g>
<!-- UiComponent  -->
<g id="node29" class="node">
<title>UiComponent </title>
<polygon fill="#fb8072" stroke="#000000" points="722.3297,-122 623.6703,-122 623.6703,-86 722.3297,-86 722.3297,-122"/>
<text text-anchor="middle" x="673" y="-99.8" font-family="Times,serif" font-size="14.00" fill="#000000">UiComponent </text>
</g>
<!-- UiModule&#45;&gt;UiComponent  -->
<g id="edge27" class="edge">
<title>UiModule&#45;&gt;UiComponent </title>
<path fill="none" stroke="#000000" stroke-dasharray="5,2" d="M824.7059,-161.8097C824.7059,-158.4624 824.7059,-156 824.7059,-156 824.7059,-156 688.3221,-156 688.3221,-156 688.3221,-156 688.3221,-132.1871 688.3221,-132.1871"/>
<polygon fill="#000000" stroke="#000000" points="691.8221,-132.187 688.3221,-122.1871 684.8221,-132.1871 691.8221,-132.187"/>
</g>
<!-- LoginComponent -->
<g id="node8" class="node">
<title>LoginComponent</title>
<polygon fill="#ffffb3" stroke="#000000" points="1556.2758,-122 1441.7242,-122 1441.7242,-86 1556.2758,-86 1556.2758,-122"/>
<text text-anchor="middle" x="1499" y="-99.8" font-family="Times,serif" font-size="14.00" fill="#000000">LoginComponent</text>
</g>
<!-- LoginComponent&#45;&gt;LoginModule -->
<g id="edge7" class="edge">
<title>LoginComponent&#45;&gt;LoginModule</title>
<path fill="none" stroke="#000000" d="M1499,-122.0439C1499,-134.5633 1499,-149 1499,-149 1499,-149 995.9045,-149 995.9045,-149 995.9045,-149 995.9045,-151.9672 995.9045,-151.9672"/>
<polygon fill="#000000" stroke="#000000" points="992.4045,-151.9671 995.9045,-161.9672 999.4045,-151.9672 992.4045,-151.9671"/>
</g>
<!-- LoginRoutingModule -->
<g id="node9" class="node">
<title>LoginRoutingModule</title>
<polygon fill="#8dd3c7" stroke="#000000" points="1418.1108,-122 1415.1108,-126 1394.1108,-126 1391.1108,-122 1279.8892,-122 1279.8892,-86 1418.1108,-86 1418.1108,-122"/>
<text text-anchor="middle" x="1349" y="-99.8" font-family="Times,serif" font-size="14.00" fill="#000000">LoginRoutingModule</text>
</g>
<!-- LoginRoutingModule&#45;&gt;LoginModule -->
<g id="edge8" class="edge">
<title>LoginRoutingModule&#45;&gt;LoginModule</title>
<path fill="none" stroke="#000000" d="M1349,-122.1097C1349,-131.897 1349,-142 1349,-142 1349,-142 991.3124,-142 991.3124,-142 991.3124,-142 991.3124,-151.8903 991.3124,-151.8903"/>
<polygon fill="#000000" stroke="#000000" points="987.8125,-151.8903 991.3124,-161.8903 994.8125,-151.8904 987.8125,-151.8903"/>
</g>
<!-- PageNotFoundComponent -->
<g id="node10" class="node">
<title>PageNotFoundComponent</title>
<polygon fill="#ffffb3" stroke="#000000" points="583.8243,-122 418.1757,-122 418.1757,-86 583.8243,-86 583.8243,-122"/>
<text text-anchor="middle" x="501" y="-99.8" font-family="Times,serif" font-size="14.00" fill="#000000">PageNotFoundComponent</text>
</g>
<!-- PageNotFoundComponent&#45;&gt;PageNotFoundModule -->
<g id="edge9" class="edge">
<title>PageNotFoundComponent&#45;&gt;PageNotFoundModule</title>
<path fill="none" stroke="#000000" d="M501,-122.308C501,-142.1455 501,-171 501,-171 501,-171 644.19,-171 644.19,-171"/>
<polygon fill="#000000" stroke="#000000" points="644.19,-174.5001 654.19,-171 644.1899,-167.5001 644.19,-174.5001"/>
</g>
<!-- PagenotfoundroutingModule -->
<g id="node11" class="node">
<title>PagenotfoundroutingModule</title>
<polygon fill="#8dd3c7" stroke="#000000" points="393.7548,-122 390.7548,-126 369.7548,-126 366.7548,-122 216.2452,-122 216.2452,-86 393.7548,-86 393.7548,-122"/>
<text text-anchor="middle" x="305" y="-99.8" font-family="Times,serif" font-size="14.00" fill="#000000">PagenotfoundroutingModule</text>
</g>
<!-- PagenotfoundroutingModule&#45;&gt;PageNotFoundModule -->
<g id="edge10" class="edge">
<title>PagenotfoundroutingModule&#45;&gt;PageNotFoundModule</title>
<path fill="none" stroke="#000000" d="M305,-122.0109C305,-144.4852 305,-180 305,-180 305,-180 644.1059,-180 644.1059,-180"/>
<polygon fill="#000000" stroke="#000000" points="644.1059,-183.5001 654.1059,-180 644.1058,-176.5001 644.1059,-183.5001"/>
</g>
<!-- ListPrestationsComponent -->
<g id="node13" class="node">
<title>ListPrestationsComponent</title>
<polygon fill="#ffffb3" stroke="#000000" points="1916.0448,-122 1751.9552,-122 1751.9552,-86 1916.0448,-86 1916.0448,-122"/>
<text text-anchor="middle" x="1834" y="-99.8" font-family="Times,serif" font-size="14.00" fill="#000000">ListPrestationsComponent</text>
</g>
<!-- PrestationsModule -->
<g id="node15" class="node">
<title>PrestationsModule</title>
<polygon fill="#8dd3c7" stroke="#000000" points="1988.4832,-198 1985.4832,-202 1964.4832,-202 1961.4832,-198 1867.5168,-198 1867.5168,-162 1988.4832,-162 1988.4832,-198"/>
<text text-anchor="middle" x="1928" y="-175.8" font-family="Times,serif" font-size="14.00" fill="#000000">PrestationsModule</text>
</g>
<!-- ListPrestationsComponent&#45;&gt;PrestationsModule -->
<g id="edge12" class="edge">
<title>ListPrestationsComponent&#45;&gt;PrestationsModule</title>
<path fill="none" stroke="#000000" d="M1891.8903,-122.0109C1891.8903,-122.0109 1891.8903,-151.855 1891.8903,-151.855"/>
<polygon fill="#000000" stroke="#000000" points="1888.3903,-151.8549 1891.8903,-161.855 1895.3903,-151.855 1888.3903,-151.8549"/>
</g>
<!-- PrestationComponent -->
<g id="node14" class="node">
<title>PrestationComponent</title>
<polygon fill="#ffffb3" stroke="#000000" points="1733.8216,-122 1596.1784,-122 1596.1784,-86 1733.8216,-86 1733.8216,-122"/>
<text text-anchor="middle" x="1665" y="-99.8" font-family="Times,serif" font-size="14.00" fill="#000000">PrestationComponent</text>
</g>
<!-- PrestationComponent&#45;&gt;PrestationsModule -->
<g id="edge13" class="edge">
<title>PrestationComponent&#45;&gt;PrestationsModule</title>
<path fill="none" stroke="#000000" d="M1665,-122.0109C1665,-144.4852 1665,-180 1665,-180 1665,-180 1857.3323,-180 1857.3323,-180"/>
<polygon fill="#000000" stroke="#000000" points="1857.3323,-183.5001 1867.3323,-180 1857.3322,-176.5001 1857.3323,-183.5001"/>
</g>
<!-- ListPrestationsComponent  -->
<g id="node18" class="node">
<title>ListPrestationsComponent </title>
<polygon fill="#fb8072" stroke="#000000" points="2012.0442,-266 1843.9558,-266 1843.9558,-230 2012.0442,-230 2012.0442,-266"/>
<text text-anchor="middle" x="1928" y="-243.8" font-family="Times,serif" font-size="14.00" fill="#000000">ListPrestationsComponent </text>
</g>
<!-- PrestationsModule&#45;&gt;ListPrestationsComponent  -->
<g id="edge16" class="edge">
<title>PrestationsModule&#45;&gt;ListPrestationsComponent </title>
<path fill="none" stroke="#000000" stroke-dasharray="5,2" d="M1928,-198.2228C1928,-198.2228 1928,-219.7269 1928,-219.7269"/>
<polygon fill="#000000" stroke="#000000" points="1924.5001,-219.7269 1928,-229.7269 1931.5001,-219.727 1924.5001,-219.7269"/>
</g>
<!-- PrestationsRoutingModule -->
<g id="node16" class="node">
<title>PrestationsRoutingModule</title>
<polygon fill="#8dd3c7" stroke="#000000" points="2106.101,-122 2103.101,-126 2082.101,-126 2079.101,-122 1939.899,-122 1939.899,-86 2106.101,-86 2106.101,-122"/>
<text text-anchor="middle" x="2023" y="-99.8" font-family="Times,serif" font-size="14.00" fill="#000000">PrestationsRoutingModule</text>
</g>
<!-- PrestationsRoutingModule&#45;&gt;PrestationsModule -->
<g id="edge14" class="edge">
<title>PrestationsRoutingModule&#45;&gt;PrestationsModule</title>
<path fill="none" stroke="#000000" d="M1964.2206,-122.0109C1964.2206,-122.0109 1964.2206,-151.855 1964.2206,-151.855"/>
<polygon fill="#000000" stroke="#000000" points="1960.7206,-151.8549 1964.2206,-161.855 1967.7206,-151.855 1960.7206,-151.8549"/>
</g>
<!-- SharedModule -->
<g id="node17" class="node">
<title>SharedModule</title>
<polygon fill="#8dd3c7" stroke="#000000" points="2222.4231,-122 2219.4231,-126 2198.4231,-126 2195.4231,-122 2123.5769,-122 2123.5769,-86 2222.4231,-86 2222.4231,-122"/>
<text text-anchor="middle" x="2173" y="-99.8" font-family="Times,serif" font-size="14.00" fill="#000000">SharedModule</text>
</g>
<!-- SharedModule&#45;&gt;PrestationsModule -->
<g id="edge15" class="edge">
<title>SharedModule&#45;&gt;PrestationsModule</title>
<path fill="none" stroke="#000000" d="M2173,-122.0109C2173,-144.4852 2173,-180 2173,-180 2173,-180 1998.5618,-180 1998.5618,-180"/>
<polygon fill="#000000" stroke="#000000" points="1998.5618,-176.5001 1988.5618,-180 1998.5618,-183.5001 1998.5618,-176.5001"/>
</g>
<!-- BtnTabComponent  -->
<g id="node22" class="node">
<title>BtnTabComponent </title>
<polygon fill="#fb8072" stroke="#000000" points="2628.3269,-198 2501.6731,-198 2501.6731,-162 2628.3269,-162 2628.3269,-198"/>
<text text-anchor="middle" x="2565" y="-175.8" font-family="Times,serif" font-size="14.00" fill="#000000">BtnTabComponent </text>
</g>
<!-- SharedModule&#45;&gt;BtnTabComponent  -->
<g id="edge20" class="edge">
<title>SharedModule&#45;&gt;BtnTabComponent </title>
<path fill="none" stroke="#000000" stroke-dasharray="5,2" d="M2222.2501,-107C2327.5333,-107 2565,-107 2565,-107 2565,-107 2565,-151.9551 2565,-151.9551"/>
<polygon fill="#000000" stroke="#000000" points="2561.5001,-151.955 2565,-161.9551 2568.5001,-151.9551 2561.5001,-151.955"/>
</g>
<!-- TableauComponent  -->
<g id="node23" class="node">
<title>TableauComponent </title>
<polygon fill="#fb8072" stroke="#000000" points="2483.9194,-198 2354.0806,-198 2354.0806,-162 2483.9194,-162 2483.9194,-198"/>
<text text-anchor="middle" x="2419" y="-175.8" font-family="Times,serif" font-size="14.00" fill="#000000">TableauComponent </text>
</g>
<!-- SharedModule&#45;&gt;TableauComponent  -->
<g id="edge21" class="edge">
<title>SharedModule&#45;&gt;TableauComponent </title>
<path fill="none" stroke="#000000" stroke-dasharray="5,2" d="M2222.4859,-112C2294.3219,-112 2419,-112 2419,-112 2419,-112 2419,-151.7772 2419,-151.7772"/>
<polygon fill="#000000" stroke="#000000" points="2415.5001,-151.7772 2419,-161.7772 2422.5001,-151.7773 2415.5001,-151.7772"/>
</g>
<!-- TotalPipe  -->
<g id="node24" class="node">
<title>TotalPipe </title>
<polygon fill="#fb8072" stroke="#000000" points="2335.9362,-198 2262.0638,-198 2262.0638,-162 2335.9362,-162 2335.9362,-198"/>
<text text-anchor="middle" x="2299" y="-175.8" font-family="Times,serif" font-size="14.00" fill="#000000">TotalPipe </text>
</g>
<!-- SharedModule&#45;&gt;TotalPipe  -->
<g id="edge22" class="edge">
<title>SharedModule&#45;&gt;TotalPipe </title>
<path fill="none" stroke="#000000" stroke-dasharray="5,2" d="M2222.4369,-117C2257.7365,-117 2299,-117 2299,-117 2299,-117 2299,-151.7778 2299,-151.7778"/>
<polygon fill="#000000" stroke="#000000" points="2295.5001,-151.7778 2299,-161.7778 2302.5001,-151.7778 2295.5001,-151.7778"/>
</g>
<!-- BtnTabComponent -->
<g id="node19" class="node">
<title>BtnTabComponent</title>
<polygon fill="#ffffb3" stroke="#000000" points="3007.8272,-198 2884.1728,-198 2884.1728,-162 3007.8272,-162 3007.8272,-198"/>
<text text-anchor="middle" x="2946" y="-175.8" font-family="Times,serif" font-size="14.00" fill="#000000">BtnTabComponent</text>
</g>
<!-- BtnTabComponent&#45;&gt;SharedModule -->
<g id="edge17" class="edge">
<title>BtnTabComponent&#45;&gt;SharedModule</title>
<path fill="none" stroke="#000000" d="M2946,-161.7663C2946,-135.9906 2946,-92 2946,-92 2946,-92 2232.2354,-92 2232.2354,-92"/>
<polygon fill="#000000" stroke="#000000" points="2232.2354,-88.5001 2222.2354,-92 2232.2354,-95.5001 2232.2354,-88.5001"/>
</g>
<!-- TableauComponent -->
<g id="node20" class="node">
<title>TableauComponent</title>
<polygon fill="#ffffb3" stroke="#000000" points="2866.4201,-198 2739.5799,-198 2739.5799,-162 2866.4201,-162 2866.4201,-198"/>
<text text-anchor="middle" x="2803" y="-175.8" font-family="Times,serif" font-size="14.00" fill="#000000">TableauComponent</text>
</g>
<!-- TableauComponent&#45;&gt;SharedModule -->
<g id="edge18" class="edge">
<title>TableauComponent&#45;&gt;SharedModule</title>
<path fill="none" stroke="#000000" d="M2803,-161.9902C2803,-137.5793 2803,-97 2803,-97 2803,-97 2232.435,-97 2232.435,-97"/>
<polygon fill="#000000" stroke="#000000" points="2232.4351,-93.5001 2222.435,-97 2232.435,-100.5001 2232.4351,-93.5001"/>
</g>
<!-- TotalPipe -->
<g id="node21" class="node">
<title>TotalPipe</title>
<polygon fill="#ffffb3" stroke="#000000" points="2722.4376,-198 2651.5624,-198 2651.5624,-162 2722.4376,-162 2722.4376,-198"/>
<text text-anchor="middle" x="2687" y="-175.8" font-family="Times,serif" font-size="14.00" fill="#000000">TotalPipe</text>
</g>
<!-- TotalPipe&#45;&gt;SharedModule -->
<g id="edge19" class="edge">
<title>TotalPipe&#45;&gt;SharedModule</title>
<path fill="none" stroke="#000000" d="M2687,-161.9092C2687,-138.8672 2687,-102 2687,-102 2687,-102 2232.2845,-102 2232.2845,-102"/>
<polygon fill="#000000" stroke="#000000" points="2232.2845,-98.5001 2222.2845,-102 2232.2844,-105.5001 2232.2845,-98.5001"/>
</g>
<!-- FooterComponent -->
<g id="node25" class="node">
<title>FooterComponent</title>
<polygon fill="#ffffb3" stroke="#000000" points="1239.8809,-122 1122.1191,-122 1122.1191,-86 1239.8809,-86 1239.8809,-122"/>
<text text-anchor="middle" x="1181" y="-99.8" font-family="Times,serif" font-size="14.00" fill="#000000">FooterComponent</text>
</g>
<!-- FooterComponent&#45;&gt;UiModule -->
<g id="edge23" class="edge">
<title>FooterComponent&#45;&gt;UiModule</title>
<path fill="none" stroke="#000000" d="M1134.7234,-122.2434C1134.7234,-129.4297 1134.7234,-136 1134.7234,-136 1134.7234,-136 882.2484,-136 882.2484,-136 882.2484,-136 882.2484,-151.8495 882.2484,-151.8495"/>
<polygon fill="#000000" stroke="#000000" points="878.7485,-151.8494 882.2484,-161.8495 885.7485,-151.8495 878.7485,-151.8494"/>
</g>
<!-- HeaderComponent -->
<g id="node26" class="node">
<title>HeaderComponent</title>
<polygon fill="#ffffb3" stroke="#000000" points="1103.7437,-122 982.2563,-122 982.2563,-86 1103.7437,-86 1103.7437,-122"/>
<text text-anchor="middle" x="1043" y="-99.8" font-family="Times,serif" font-size="14.00" fill="#000000">HeaderComponent</text>
</g>
<!-- HeaderComponent&#45;&gt;UiModule -->
<g id="edge24" class="edge">
<title>HeaderComponent&#45;&gt;UiModule</title>
<path fill="none" stroke="#000000" d="M986.7204,-122.1686C986.7204,-126.0459 986.7204,-129 986.7204,-129 986.7204,-129 874.7234,-129 874.7234,-129 874.7234,-129 874.7234,-151.8757 874.7234,-151.8757"/>
<polygon fill="#000000" stroke="#000000" points="871.2234,-151.8757 874.7234,-161.8757 878.2234,-151.8757 871.2234,-151.8757"/>
</g>
<!-- NavComponent -->
<g id="node27" class="node">
<title>NavComponent</title>
<polygon fill="#ffffb3" stroke="#000000" points="964.1542,-122 859.8458,-122 859.8458,-86 964.1542,-86 964.1542,-122"/>
<text text-anchor="middle" x="912" y="-99.8" font-family="Times,serif" font-size="14.00" fill="#000000">NavComponent</text>
</g>
<!-- NavComponent&#45;&gt;UiModule -->
<g id="edge25" class="edge">
<title>NavComponent&#45;&gt;UiModule</title>
<path fill="none" stroke="#000000" d="M867.1983,-122.0109C867.1983,-122.0109 867.1983,-151.855 867.1983,-151.855"/>
<polygon fill="#000000" stroke="#000000" points="863.6984,-151.8549 867.1983,-161.855 870.6984,-151.855 863.6984,-151.8549"/>
</g>
<!-- UiComponent -->
<g id="node28" class="node">
<title>UiComponent</title>
<polygon fill="#ffffb3" stroke="#000000" points="841.8302,-122 746.1698,-122 746.1698,-86 841.8302,-86 841.8302,-122"/>
<text text-anchor="middle" x="794" y="-99.8" font-family="Times,serif" font-size="14.00" fill="#000000">UiComponent</text>
</g>
<!-- UiComponent&#45;&gt;UiModule -->
<g id="edge26" class="edge">
<title>UiComponent&#45;&gt;UiModule</title>
<path fill="none" stroke="#000000" d="M833.1854,-122.0109C833.1854,-122.0109 833.1854,-151.855 833.1854,-151.855"/>
<polygon fill="#000000" stroke="#000000" points="829.6855,-151.8549 833.1854,-161.855 836.6855,-151.855 829.6855,-151.8549"/>
</g>
</g>
</svg>
